<?xml version="1.0" encoding="utf-8"?><svg viewBox="0 0 150 68" xmlns="http://www.w3.org/2000/svg" xmlns:xlink="http://www.w3.org/1999/xlink"><style>:root>svg{display:none}:root>svg:target{display:block}</style><svg viewBox="0 0 32 32" id="arr" xmlns="http://www.w3.org/2000/svg"><path d="M32 15H3.41l8.29-8.29-1.41-1.42-10 10a1 1 0 0 0 0 1.41l10 10 1.41-1.41L3.41 17H32Z" data-name="4-Arrow Left"/></svg><svg fill="none" viewBox="0 0 35 35" id="arrow-right" xmlns="http://www.w3.org/2000/svg"><g clip-path="url(#ba)"><path fill-rule="evenodd" clip-rule="evenodd" d="M34.15 17.435 17.073 34.594l-1.642-1.65 14.27-14.34H0V16.27h29.705L15.432 1.925l1.641-1.65 17.076 17.16Z" fill="#333"/></g><defs><clipPath id="ba"><path fill="#fff" d="M0 0h35v35H0z"/></clipPath></defs></svg><svg fill="none" viewBox="0 0 35 35" id="arrowleft" xmlns="http://www.w3.org/2000/svg"><g clip-path="url(#ca)"><path fill-rule="evenodd" clip-rule="evenodd" d="M34.83 18.601H5.125l14.27 14.341-1.641 1.65L.68 17.435 17.756.275l1.642 1.65L5.125 16.268H34.83v2.333Z" fill="#333"/></g><defs><clipPath id="ca"/></defs></svg><svg style="position:absolute" viewBox="0 0 0 0" id="defs" xmlns="http://www.w3.org/2000/svg"><defs><svg viewBox="0 0 32 32" width="32" height="32" id="darr" y="0"><path d="M32 15H3.41l8.29-8.29-1.41-1.42-10 10a1 1 0 0 0 0 1.41l10 10 1.41-1.41L3.41 17H32z" data-name="4-Arrow Left"/></svg><svg width="35" height="35" viewBox="0 0 35 35" id="darrow-right" y="32"><g clip-path="url(#da)"><path fill-rule="evenodd" clip-rule="evenodd" d="M34.15 17.435 17.073 34.594l-1.642-1.65 14.27-14.34H0V16.27h29.705L15.432 1.925l1.641-1.65 17.076 17.16z"/></g><defs><clipPath id="da"><path d="M0 0h35v35H0z"/></clipPath></defs></svg><svg width="35" height="35" viewBox="0 0 35 35" id="darrowleft" y="67"><g clip-path="url(#da)"><path fill-rule="evenodd" clip-rule="evenodd" d="M34.83 18.601H5.125l14.27 14.341-1.641 1.65L.68 17.435 17.756.275l1.642 1.65L5.125 16.268H34.83v2.333z"/></g><defs><clipPath id="da"/></defs></svg><svg width="0" height="0" id="ddefs" y="102"><defs><clipPath id="da"><path d="M0 0h35v35H0z"/></clipPath></defs></svg><svg width="50" height="50" viewBox="0 0 50 50" id="dmonitor" y="102"><path fill-rule="evenodd" clip-rule="evenodd" d="M46.658 35.83V5.842H3.34V35.83h20.825v6.664h-5.832v1.666h13.329v-1.666H25.83V35.83h20.828zM5.008 7.506h39.984v26.657H5.008V7.506z"/></svg><svg width="55" height="65" viewBox="0 0 55 65" id="dplay" y="152"><g clip-path="url(#da)"><path fill-rule="evenodd" clip-rule="evenodd" d="m3.048 5.313 45.779 26.703L3.048 58.72V5.313zM0 .003v64.024l54.877-32.013L0 0v.003z"/></g><defs><clipPath id="da"><path d="M0 0h55v65H0z"/></clipPath></defs></svg><svg width="50" height="51" viewBox="0 0 50 51" id="dspeaker" y="217"><g fill-rule="evenodd" clip-rule="evenodd"><path d="M.557 19.525v11.443h4.905v9.808h1.634v-9.808H19.67l11.939 9.661V9.572l-12.015 9.953H.558zm1.636 9.807V21.16h6.538v8.172H2.193zm18.444-8.548 9.336-7.736v24.155l-9.726-7.87h-9.883v-8.172h9.818l.453-.375.002-.002zm22.283-9.772-1.175 1.176c3.825 2.994 6.298 7.642 6.298 12.865 0 5.363-2.608 10.117-6.61 13.098l1.184 1.184c4.291-3.285 7.061-8.46 7.061-14.282 0-5.681-2.64-10.746-6.756-14.04h-.001z"/><path d="M37.669 16.282 36.48 17.47c2.523 1.595 4.208 4.4 4.208 7.6 0 3.34-1.835 6.254-4.547 7.804l1.191 1.191c2.994-1.88 4.992-5.2 4.992-8.995a10.61 10.61 0 0 0-4.655-8.788h-.001z"/></g></svg><svg width="50" height="50" viewBox="0 0 50 50" id="dvector" y="268"><g clip-path="url(#da)"><path fill-rule="evenodd" clip-rule="evenodd" d="m45.39 16.795-1.633 1.634a19.487 19.487 0 0 0-12.8-4.812c-3.178 0-6.354.817-9.078 2.269l6.899-6.899c.545.363 1.18.545 1.816.545.907 0 1.816-.363 2.541-1.09a3.618 3.618 0 0 0 0-5.174c-.727-.727-1.634-1.09-2.54-1.09-.908 0-1.817.363-2.542 1.09-1.18 1.272-1.362 3.086-.545 4.448l-8.715 8.715-1.634-1.634-4.447 4.447 1.633 1.634-8.896 8.897a3.277 3.277 0 0 0-1.817-.544c-.907 0-1.816.362-2.54 1.089a3.618 3.618 0 0 0 0 5.175c.726.634 1.633.999 2.54.999.908 0 1.817-.363 2.542-1.09 1.18-1.18 1.361-2.996.544-4.447l6.899-6.9c-3.63 6.992-2.814 15.706 2.541 21.878l-1.634 1.725 4.54 4.447 4.448-4.447-4.448-4.448-1.544 1.544c-5.265-6.174-5.537-15.07-1.09-21.605l.727.726 4.54-4.447-.817-.727c2.905-2.088 6.446-3.178 10.077-3.178 4.267 0 8.26 1.544 11.528 4.267l-1.634 1.544 4.54 4.448 4.447-4.448-4.447-4.54v-.001zM20.97 47.66l-1.906 1.906-1.907-1.906 1.907-1.907 1.906 1.907zm8.353-43.03a1.794 1.794 0 0 1 1.271-.545c.454 0 .907.182 1.271.545.727.727.727 1.816 0 2.541a1.794 1.794 0 0 1-1.27.545c-.455 0-.908-.182-1.272-.545-.727-.635-.727-1.816 0-2.541zM4.903 34.133a1.794 1.794 0 0 1-1.272.544c-.455 0-.908-.182-1.272-.544-.362-.273-.545-.727-.545-1.272 0-.454.183-.907.545-1.271a1.787 1.787 0 0 1 1.272-.545c.454 0 .907.182 1.271.545.727.727.727 1.906 0 2.541v.002zm12.164-12.8-1.906-1.907 1.906-1.906 1.907 1.906-1.907 1.907zm28.324 1.906-1.907-1.906 1.907-1.907 1.906 1.907-1.906 1.906z"/></g><defs><clipPath id="da"><path d="M0 0h50v50H0z"/></clipPath></defs></svg></defs></svg><svg fill="none" viewBox="0 0 150 68" id="footer-logo" xmlns="http://www.w3.org/2000/svg"><g clip-path="url(#ea)"><path d="M0 67h150" stroke="#FCBB08" stroke-width="2" stroke-linecap="square"/><path d="M50.347 55.286c-2.544 0-4.836-.552-6.876-1.656-2.04-1.128-3.648-2.676-4.824-4.644-1.152-1.968-1.728-4.164-1.728-6.588 0-2.424.576-4.62 1.728-6.588 1.176-1.968 2.784-3.504 4.824-4.608 2.04-1.128 4.332-1.692 6.876-1.692 2.52 0 4.8.564 6.84 1.692 2.04 1.104 3.636 2.64 4.788 4.608 1.152 1.944 1.728 4.14 1.728 6.588 0 2.448-.576 4.656-1.728 6.624-1.152 1.944-2.748 3.48-4.788 4.608-2.04 1.104-4.32 1.656-6.84 1.656Zm0-3.204c1.848 0 3.504-.42 4.968-1.26a9.115 9.115 0 0 0 3.492-3.456c.864-1.488 1.296-3.144 1.296-4.968 0-1.824-.432-3.468-1.296-4.932a9.043 9.043 0 0 0-3.492-3.492c-1.464-.84-3.12-1.26-4.968-1.26-1.848 0-3.528.42-5.04 1.26a9.3 9.3 0 0 0-3.528 3.492c-.84 1.464-1.26 3.108-1.26 4.932 0 1.824.42 3.48 1.26 4.968a9.379 9.379 0 0 0 3.528 3.456c1.512.84 3.192 1.26 5.04 1.26Zm42.223 2.916-.036-18.36-9.108 15.3H81.77l-9.108-15.192v18.252h-3.456v-25.2h2.952L82.67 47.51l10.368-17.712h2.952l.036 25.2H92.57Z" fill="#fff"/><path d="m111.678 19.63-1.413-.432a.512.512 0 0 0-.536.145c-.343.388-.72.756-1.12 1.096-2.964 2.515-6.684 3.373-10.759 2.484-4.054-.884-5.918-3.231-8.497-6.479l-.564-.708a2.702 2.702 0 0 1-.075-.102c-.071-.1-.16-.224-.286-.347a4.653 4.653 0 0 0-.552-.462 1.822 1.822 0 0 1-.74-1.247l-.434-3.321a.579.579 0 0 0-.205-.37.547.547 0 0 0-.395-.126l-2.14.188a.513.513 0 0 0-.46.59l.417 3.185c.045.35-.068.704-.31.974-.37.412-.558.92-.545 1.47.169 6.948 4.828 12.091 12.463 13.758 3.295.719 6.8.289 9.867-1.211.618-.302 1.202-.64 1.75-1.012a12.879 12.879 0 0 0 2.078-1.75c1.104-1.154 1.908-2.447 2.387-3.842.205-.599.362-1.22.465-1.845a.574.574 0 0 0-.396-.636Zm-27.045-8.642 1.08-.095.288 2.201-.436.011-.653.016-.279-2.133Zm21.898 15.8c-2.97 2.014-7.001 2.908-10.828 2.073-7.09-1.547-11.415-6.284-11.57-12.67-.008-.342.148-.59.28-.737.315-.351.51-.786.567-1.244l1.209-.03a2.968 2.968 0 0 0 1.102 1.528c.148.105.288.222.416.347.053.052.1.118.154.194.035.048.07.099.112.15.19.24.378.474.561.706 2.624 3.304 4.697 5.914 9.14 6.883 2.226.486 4.376.485 6.387-.004a12.647 12.647 0 0 0 4.996-2.48l.036.017.192.093a10.304 10.304 0 0 1-2.888 2.961c-2.496 1.694-5.735 2.304-9.08 1.574-5.21-1.137-8.92-3.94-10.45-7.895a.555.555 0 0 0-.694-.336.525.525 0 0 0-.297.694c1.672 4.327 5.672 7.382 11.264 8.602 2.728.595 5.438.378 7.836-.627a11.703 11.703 0 0 0 2.051-1.109 11.3 11.3 0 0 0 3.251-3.379l.146.072c-.755 1.846-2.139 3.427-3.893 4.616Zm4.24-5.634-.219-.106-.631-.308c.136-.132.268-.267.397-.404l.609.187a10.51 10.51 0 0 1-.156.631Z" fill="#fff"/></g><defs><clipPath id="ea"><path fill="#fff" d="M0 0h150v68H0z"/></clipPath></defs></svg><svg viewBox="0 0 50 50" id="linkedin" xmlns="http://www.w3.org/2000/svg"><path d="M9 4C6.25 4 4 6.25 4 9v32c0 2.75 2.25 5 5 5h32c2.75 0 5-2.25 5-5V9c0-2.75-2.25-5-5-5H9zm0 2h32c1.668 0 3 1.332 3 3v32c0 1.668-1.332 3-3 3H9c-1.668 0-3-1.332-3-3V9c0-1.668 1.332-3 3-3zm5 5.012c-1.095 0-2.08.327-2.81.941a3.297 3.297 0 0 0-1.178 2.514c0 1.867 1.62 3.323 3.68 3.467a.988.988 0 0 0 .003.002.988.988 0 0 0 .305.052c2.273 0 3.988-1.592 3.988-3.521a.988.988 0 0 0-.002-.053c-.101-1.9-1.796-3.402-3.986-3.402zm0 1.976c1.392 0 1.942.622 2.002 1.504-.012.856-.542 1.52-2.002 1.52-1.385 0-2.012-.71-2.012-1.545 0-.418.153-.733.473-1.002.32-.27.834-.477 1.539-.477zM11 19a1 1 0 0 0-1 1v19a1 1 0 0 0 1 1h6a1 1 0 0 0 1-1V20a1 1 0 0 0-1-1h-6zm9 0a1 1 0 0 0-1 1v19a1 1 0 0 0 1 1h6a1 1 0 0 0 1-1V29c0-.83.226-1.655.625-2.195.399-.54.901-.865 1.857-.848.986.017 1.508.355 1.903.885S32 28.167 32 29v10a1 1 0 0 0 1 1h6a1 1 0 0 0 1-1V28.262c0-2.962-.877-5.308-2.38-6.895C36.114 19.78 34.023 19 31.812 19A8.729 8.729 0 0 0 27 20.424V20a1 1 0 0 0-1-1h-6zm-8 2h4v17h-4V21zm9 0h4v1.56a1 1 0 0 0 1.799.602S28.369 21 31.813 21c1.753 0 3.256.583 4.355 1.742 1.099 1.16 1.832 2.946 1.832 5.52V38h-4v-9c0-1.167-.28-2.373-1.01-3.354-.73-.98-1.958-1.663-3.472-1.689-1.522-.027-2.77.67-3.502 1.662C25.284 26.611 25 27.83 25 29v9h-4V21z"/></svg><svg fill="none" viewBox="0 0 50 50" id="monitor" xmlns="http://www.w3.org/2000/svg"><path fill-rule="evenodd" clip-rule="evenodd" d="M46.658 35.83V5.842H3.34V35.83h20.825v6.664h-5.832v1.666h13.329v-1.666H25.83V35.83H46.658ZM5.008 7.506h39.984v26.657H5.008V7.506Z" fill="#333"/></svg><svg fill="none" viewBox="0 0 55 65" id="play" xmlns="http://www.w3.org/2000/svg"><g clip-path="url(#ha)"><path fill-rule="evenodd" clip-rule="evenodd" d="m3.048 5.313 45.779 26.703L3.048 58.72V5.313ZM0 .003v64.024l54.877-32.013L0 0v.003Z" fill="#fff"/></g><defs><clipPath id="ha"><path fill="#fff" d="M0 0h55v65H0z"/></clipPath></defs></svg><svg fill="none" viewBox="0 0 50 51" id="speaker" xmlns="http://www.w3.org/2000/svg"><g fill-rule="evenodd" clip-rule="evenodd" fill="#333"><path d="M.557 19.525v11.443h4.905v9.808h1.634v-9.808H19.67l11.939 9.661V9.572l-12.015 9.953H.558Zm1.636 9.807V21.16h6.538v8.172H2.193Zm18.444-8.548 9.336-7.736v24.155l-9.726-7.87h-9.883v-8.172h9.818l.453-.375.002-.002ZM42.92 11.012l-1.175 1.176c3.825 2.994 6.298 7.642 6.298 12.865 0 5.363-2.608 10.117-6.61 13.098l1.184 1.184c4.291-3.285 7.061-8.46 7.061-14.282 0-5.681-2.64-10.746-6.756-14.04h-.001Z"/><path d="M37.669 16.282 36.48 17.47c2.523 1.595 4.208 4.4 4.208 7.6 0 3.34-1.835 6.254-4.547 7.804l1.191 1.191c2.994-1.88 4.992-5.2 4.992-8.995a10.61 10.61 0 0 0-4.655-8.788h-.001Z"/></g></svg><svg fill="none" viewBox="0 0 17 9" id="up" xmlns="http://www.w3.org/2000/svg"><g clip-path="url(#ja)"><path fill-rule="evenodd" clip-rule="evenodd" d="m16.354 7.896-.707.707L8.5 1.457 1.354 8.603l-.707-.707L8.5.043l7.854 7.853Z" fill="#fff"/></g><defs><clipPath id="ja"><path fill="#fff" d="M0 0h17v9H0z"/></clipPath></defs></svg><svg fill="none" viewBox="0 0 50 50" id="vector" xmlns="http://www.w3.org/2000/svg"><g clip-path="url(#ka)"><path fill-rule="evenodd" clip-rule="evenodd" d="m45.39 16.795-1.633 1.634a19.487 19.487 0 0 0-12.8-4.812c-3.178 0-6.354.817-9.078 2.269l6.899-6.899c.545.363 1.18.545 1.816.545.907 0 1.816-.363 2.541-1.09a3.618 3.618 0 0 0 0-5.174c-.727-.727-1.634-1.09-2.54-1.09-.908 0-1.817.363-2.542 1.09-1.18 1.272-1.362 3.086-.545 4.448l-8.715 8.715-1.634-1.634-4.447 4.447 1.633 1.634-8.896 8.897a3.277 3.277 0 0 0-1.817-.544c-.907 0-1.816.362-2.54 1.089a3.618 3.618 0 0 0 0 5.175c.726.634 1.633.999 2.54.999.908 0 1.817-.363 2.542-1.09 1.18-1.18 1.361-2.996.544-4.447l6.899-6.9c-3.63 6.992-2.814 15.706 2.541 21.878l-1.634 1.725 4.54 4.447 4.448-4.447-4.448-4.448-1.544 1.544c-5.265-6.174-5.537-15.07-1.09-21.605l.727.726 4.54-4.447-.817-.727c2.905-2.088 6.446-3.178 10.077-3.178 4.267 0 8.26 1.544 11.528 4.267l-1.634 1.544 4.54 4.448 4.447-4.448-4.447-4.54v-.001ZM20.97 47.66l-1.906 1.906-1.907-1.906 1.907-1.907 1.906 1.907Zm8.353-43.03a1.794 1.794 0 0 1 1.271-.545c.454 0 .907.182 1.271.545.727.727.727 1.816 0 2.541a1.794 1.794 0 0 1-1.27.545c-.455 0-.908-.182-1.272-.545-.727-.635-.727-1.816 0-2.541ZM4.903 34.133a1.794 1.794 0 0 1-1.272.544c-.455 0-.908-.182-1.272-.544-.362-.273-.545-.727-.545-1.272 0-.454.183-.907.545-1.271a1.787 1.787 0 0 1 1.272-.545c.454 0 .907.182 1.271.545.727.727.727 1.906 0 2.541v.002Zm12.164-12.8-1.906-1.907 1.906-1.906 1.907 1.906-1.907 1.907Zm28.324 1.906-1.907-1.906 1.907-1.907 1.906 1.907-1.906 1.906Z" fill="#333"/></g><defs><clipPath id="ka"><path fill="#fff" d="M0 0h50v50H0z"/></clipPath></defs></svg></svg>