<svg xmlns="http://www.w3.org/2000/svg" xmlns:xlink="http://www.w3.org/1999/xlink" width="0" height="0" style="position:absolute">
    <defs>
      
        <svg viewBox="0 0 32 32" width="32" height="32" id="arr" y="0"><title>4-Arrow Left</title><path d="M32 15H3.41l8.29-8.29-1.41-1.42-10 10a1 1 0 0 0 0 1.41l10 10 1.41-1.41L3.41 17H32z" data-name="4-Arrow Left"></path></svg>
      
        <svg width="35" height="35" viewBox="0 0 35 35" id="arrow-right" y="32"><g clip-path="url(#a)"><path fill-rule="evenodd" clip-rule="evenodd" d="M34.15 17.435L17.073 34.594l-1.642-1.65 14.27-14.34H0V16.27h29.705L15.432 1.925l1.641-1.65 17.076 17.16z"></path></g><defs><clipPath id="a"><path d="M0 0h35v35H0z"></path></clipPath></defs></svg>
      
        <svg width="35" height="35" viewBox="0 0 35 35" id="arrowleft" y="67"><g clip-path="url(#a)"><path fill-rule="evenodd" clip-rule="evenodd" d="M34.83 18.601H5.125l14.27 14.341-1.641 1.65L.68 17.435 17.756.275l1.642 1.65L5.125 16.268H34.83v2.333z"></path></g><defs><clipPath id="a"></clipPath></defs></svg>
      
        <svg width="0" height="0" id="defs" y="102"><defs><clipPath id="a"><path d="M0 0h35v35H0z"></path></clipPath></defs></svg>
      
        <svg width="50" height="50" viewBox="0 0 50 50" id="monitor" y="102"><path fill-rule="evenodd" clip-rule="evenodd" d="M46.658 35.83V5.842H3.34V35.83h20.825v6.664h-5.832v1.666h13.329v-1.666H25.83V35.83H46.658zM5.008 7.506h39.984v26.657H5.008V7.506z"></path></svg>
      
        <svg width="55" height="65" viewBox="0 0 55 65" id="play" y="152"><g clip-path="url(#a)"><path fill-rule="evenodd" clip-rule="evenodd" d="M3.048 5.313l45.779 26.703L3.048 58.72V5.313zM0 .003v64.024l54.877-32.013L0 0v.003z"></path></g><defs><clipPath id="a"><path d="M0 0h55v65H0z"></path></clipPath></defs></svg>
      
        <svg width="50" height="51" viewBox="0 0 50 51" id="speaker" y="217"><g fill-rule="evenodd" clip-rule="evenodd"><path d="M.557 19.525v11.443h4.905v9.808h1.634v-9.808H19.67l11.939 9.661V9.572l-12.015 9.953H.558zm1.636 9.807V21.16h6.538v8.172H2.193zm18.444-8.548l9.336-7.736v24.155l-9.726-7.87h-9.883v-8.172h9.818l.453-.375.002-.002zM42.92 11.012l-1.175 1.176c3.825 2.994 6.298 7.642 6.298 12.865 0 5.363-2.608 10.117-6.61 13.098l1.184 1.184c4.291-3.285 7.061-8.46 7.061-14.282 0-5.681-2.64-10.746-6.756-14.04h-.001z"></path><path d="M37.669 16.282L36.48 17.47c2.523 1.595 4.208 4.4 4.208 7.6 0 3.34-1.835 6.254-4.547 7.804l1.191 1.191c2.994-1.88 4.992-5.2 4.992-8.995a10.61 10.61 0 0 0-4.655-8.788h-.001z"></path></g></svg>
      
        <svg width="50" height="50" viewBox="0 0 50 50" id="vector" y="268"><g clip-path="url(#a)"><path fill-rule="evenodd" clip-rule="evenodd" d="M45.39 16.795l-1.633 1.634a19.487 19.487 0 0 0-12.8-4.812c-3.178 0-6.354.817-9.078 2.269l6.899-6.899c.545.363 1.18.545 1.816.545.907 0 1.816-.363 2.541-1.09a3.618 3.618 0 0 0 0-5.174c-.727-.727-1.634-1.09-2.54-1.09-.908 0-1.817.363-2.542 1.09-1.18 1.272-1.362 3.086-.545 4.448l-8.715 8.715-1.634-1.634-4.447 4.447 1.633 1.634-8.896 8.897a3.277 3.277 0 0 0-1.817-.544c-.907 0-1.816.362-2.54 1.089a3.618 3.618 0 0 0 0 5.175c.726.634 1.633.999 2.54.999.908 0 1.817-.363 2.542-1.09 1.18-1.18 1.361-2.996.544-4.447l6.899-6.9c-3.63 6.992-2.814 15.706 2.541 21.878l-1.634 1.725 4.54 4.447 4.448-4.447-4.448-4.448-1.544 1.544c-5.265-6.174-5.537-15.07-1.09-21.605l.727.726 4.54-4.447-.817-.727c2.905-2.088 6.446-3.178 10.077-3.178 4.267 0 8.26 1.544 11.528 4.267l-1.634 1.544 4.54 4.448 4.447-4.448-4.447-4.54v-.001zM20.97 47.66l-1.906 1.906-1.907-1.906 1.907-1.907 1.906 1.907zm8.353-43.03a1.794 1.794 0 0 1 1.271-.545c.454 0 .907.182 1.271.545.727.727.727 1.816 0 2.541a1.794 1.794 0 0 1-1.27.545c-.455 0-.908-.182-1.272-.545-.727-.635-.727-1.816 0-2.541zM4.903 34.133a1.794 1.794 0 0 1-1.272.544c-.455 0-.908-.182-1.272-.544-.362-.273-.545-.727-.545-1.272 0-.454.183-.907.545-1.271a1.787 1.787 0 0 1 1.272-.545c.454 0 .907.182 1.271.545.727.727.727 1.906 0 2.541v.002zm12.164-12.8l-1.906-1.907 1.906-1.906 1.907 1.906-1.907 1.907zm28.324 1.906l-1.907-1.906 1.907-1.907 1.906 1.907-1.906 1.906z"></path></g><defs><clipPath id="a"><path d="M0 0h50v50H0z"></path></clipPath></defs></svg>
      
  </defs>
</svg>
